<?xml version="1.0" standalone="no"?>
<!DOCTYPE svg PUBLIC "-//W3C//DTD SVG 1.1//EN" "http://www.w3.org/Graphics/SVG/1.1/DTD/svg11.dtd" >
<svg xmlns="http://www.w3.org/2000/svg">
<metadata>
This is a custom SVG webfont generated by Font Squirrel.
Copyright   : C Eduardo Recife 2002  wwwmisprintedtypecom 
</metadata>
<defs>
<font id="PastelariaRegular" horiz-adv-x="853" >
<font-face units-per-em="2048" ascent="1638" descent="-410" />
<missing-glyph horiz-adv-x="474" />
<glyph unicode=" "  horiz-adv-x="474" />
<glyph unicode="&#x09;" horiz-adv-x="474" />
<glyph unicode="&#xa0;" horiz-adv-x="474" />
<glyph unicode="!" horiz-adv-x="330" d="M92 2v175h146v-175h-146zM92 288v971h144v-971h-144z" />
<glyph unicode="&#x22;" horiz-adv-x="588" d="M92 997v266h140v-211zM354 995v266h142v-210z" />
<glyph unicode="#" horiz-adv-x="704" d="M92 394v119h92v92h-92v122h92v94h122v-94h92v94h122v-92h92v-122h-92v-94h92v-119h-92v-93h-122v93h-92v-93h-122v93h-92zM306 513h92v92h-92v-92z" />
<glyph unicode="$" horiz-adv-x="866" d="M92 547v528h273v182h144v-182h223v-146h-223v-238h265v-507h-265v-184h-144v184h-229v144h229v219h-273zM236 691h129v238h-129v-238zM509 328h120v219h-120v-219z" />
<glyph unicode="%" horiz-adv-x="1099" d="M92 817v444l914 2l-765 -1263h-147l675 1115h-247v-298h-430zM236 960h142v155h-142v-155zM575 0v444h430v-444h-430zM719 144h142v155h-142v-155z" />
<glyph unicode="&#x26;" horiz-adv-x="649" d="M92 350v625h162v118h137v-118h166v-125h-328v-129h169v-129h-169v-113h328v-127h-161v-118h-136v116h-168z" />
<glyph unicode="'" horiz-adv-x="324" d="M92 997v266h140v-211z" />
<glyph unicode="(" horiz-adv-x="435" d="M92 2v1257h251v-142h-107v-970h107v-145h-251z" />
<glyph unicode=")" horiz-adv-x="435" d="M92 2v145h109v970h-109v142h251v-1257h-251z" />
<glyph unicode="*" horiz-adv-x="691" d="M92 805v126h138l-66 123l103 61l74 -123l74 129l108 -61l-71 -129h147v-126h-155l74 -130l-107 -63l-70 122l-66 -117l-107 59l72 129h-148z" />
<glyph unicode="+" horiz-adv-x="691" d="M92 566v123h194v196h121v-196h192v-121h-192v-190h-121v188h-194z" />
<glyph unicode="," horiz-adv-x="324" d="M92 -70v210h140v-155z" />
<glyph unicode="-" horiz-adv-x="691" d="M92 505v136h507v-136h-507z" />
<glyph unicode="." horiz-adv-x="324" d="M92 -2v155h140v-155h-140z" />
<glyph unicode="/" horiz-adv-x="599" d="M69 0l317 1263h144l-321 -1263h-140z" />
<glyph unicode="0" d="M92 0v1259h669v-1259h-669zM236 144h381v969h-381v-969z" />
<glyph unicode="1" horiz-adv-x="457" d="M92 1113v146h273v-1257h-142v1111h-131z" />
<glyph unicode="2" horiz-adv-x="866" d="M92 2v652h537v459h-494v146h639v-747h-538v-365h492v-145h-636z" />
<glyph unicode="3" horiz-adv-x="800" d="M92 0v131h472v369h-315v132h315v496h-472v131h616v-1259h-616z" />
<glyph unicode="4" horiz-adv-x="881" d="M92 509v750h140v-619h413v619h144v-1257h-144v507h-553z" />
<glyph unicode="5" horiz-adv-x="866" d="M92 511v748h640v-146h-496v-459h538v-654h-638v144h493v367h-537z" />
<glyph unicode="6" horiz-adv-x="802" d="M92 0v1259h616v-129h-472v-466h474v-664h-618zM236 131h328v398h-328v-398z" />
<glyph unicode="7" horiz-adv-x="780" d="M92 1117v142h583l-58 -584h71v-135h-82l-53 -540h-144l50 538h-83v137h94l46 435q0 4 -4 7h-420z" />
<glyph unicode="8" d="M92 0v1259h669v-1259h-669zM236 144h381v352h-381v-352zM236 643h381v470h-381v-470z" />
<glyph unicode="9" horiz-adv-x="859" d="M92 507v752h675v-1257h-658v145h516v360h-533zM234 640h389v486h-389v-486z" />
<glyph unicode=":" horiz-adv-x="317" d="M92 -4v151h133v-151h-133zM92 783v151h133v-151h-133z" />
<glyph unicode=";" horiz-adv-x="324" d="M92 -70v210h140v-155zM92 774v157h138v-157h-138z" />
<glyph unicode="&#x3c;" horiz-adv-x="782" d="M92 575l597 404v-144l-379 -260l379 -258v-144z" />
<glyph unicode="=" horiz-adv-x="754" d="M92 359v135h570v-135h-570zM92 640v134h570v-134h-570z" />
<glyph unicode="&#x3e;" horiz-adv-x="776" d="M92 170v140l376 256l-376 258v144l592 -402z" />
<glyph unicode="?" horiz-adv-x="864" d="M92 955v308h680v-688h-276v-299h-148v435h281v417h-393v-173h-144zM359 2v140h144v-140h-144z" />
<glyph unicode="@" horiz-adv-x="1150" d="M92 0v1263h966v-1029h-335v138h-397v594h537v-592h57v750h-690v-986h828v-138h-966zM464 501h259v338h-259v-338z" />
<glyph unicode="A" horiz-adv-x="861" d="M92 0v1259h677v-1259h-144v507h-389v-507h-144zM236 643h387v483h-387v-483z" />
<glyph unicode="B" horiz-adv-x="837" d="M92 2v1257h507l146 -146v-501q-24 -13 -74 -41l74 -44v-376l-150 -149h-503zM234 147h313q50 55 54 58v267q-48 37 -54 37h-313v-362zM234 645h310q11 7 57 46v371q-52 51 -57 51h-310v-468z" />
<glyph unicode="C" horiz-adv-x="800" d="M92 0v1259h616v-129h-472v-999h472v-131h-616z" />
<glyph unicode="D" horiz-adv-x="837" d="M92 2v1257h507l146 -146v-967l-150 -144h-503zM234 147h313q50 55 54 58v857q-52 51 -57 51h-310v-966z" />
<glyph unicode="E" horiz-adv-x="800" d="M92 0v1259h616v-129h-472v-496h315v-134h-315v-369h472v-131h-616z" />
<glyph unicode="F" horiz-adv-x="800" d="M92 0v1259h616v-129h-472v-496h315v-134h-315v-500h-144z" />
<glyph unicode="G" horiz-adv-x="876" d="M92 0v1259h616v-129h-472v-997h326v350l-61 48l-103 -76v135q30 27 131 99l127 -83l127 56v-135l-73 -48v-479h-618z" />
<glyph unicode="H" horiz-adv-x="857" d="M92 2v1257h144v-619h383v619h146v-1257h-144v507h-385v-507h-144z" />
<glyph unicode="I" horiz-adv-x="328" d="M92 2v1257h144v-1257h-144z" />
<glyph unicode="J" horiz-adv-x="778" d="M92 2v472h144v-339h306v1124h144v-1257h-594z" />
<glyph unicode="K" horiz-adv-x="824" d="M69 2v1257h144v-492l365 492h177l-450 -616l442 -643h-173l-361 521v-521z" />
<glyph unicode="L" horiz-adv-x="758" d="M92 2v1257h146v-1123h427v-134h-573z" />
<glyph unicode="M" horiz-adv-x="1128" d="M92 2v1257h144l328 -474l326 474h146v-1257h-146v1001q-217 -306 -326 -480l-328 483v-1004h-144z" />
<glyph unicode="N" horiz-adv-x="946" d="M92 2v1261h144l474 -981v977h143v-1259h-142l-475 942v-940h-144z" />
<glyph unicode="O" d="M92 0v1259h669v-1259h-669zM236 144h381v969h-381v-969z" />
<glyph unicode="P" horiz-adv-x="859" d="M92 2v1257h675v-750h-531v-507h-144zM236 640h389v486h-389v-486z" />
<glyph unicode="Q" horiz-adv-x="881" d="M92 0v1263h697v-1263l-144 -4q7 -24 26 -86h-151q-8 22 -32 90h-396zM240 146h201l-58 186h152l64 -186h42v971h-401v-971z" />
<glyph unicode="R" horiz-adv-x="859" d="M92 2v1257h675v-754h-358l347 -503h-175l-345 498v-498h-144zM236 640h389v486h-389v-486z" />
<glyph unicode="S" horiz-adv-x="866" d="M92 511v748h640v-146h-496v-459h538v-654h-638v144h493v367h-537z" />
<glyph unicode="T" horiz-adv-x="837" d="M70 1126v133h699v-131h-282v-1126h-146v1124h-271z" />
<glyph unicode="U" horiz-adv-x="899" d="M92 2v1257h144v-1112h428v1112h143v-1257h-715z" />
<glyph unicode="V" horiz-adv-x="957" d="M70 1259h146l263 -1112l262 1112h147l-294 -1257h-229z" />
<glyph unicode="W" horiz-adv-x="1047" d="M69 1259h142l53 -1110l183 596h151l184 -599l52 1113h144l-57 -1259h-242l-155 501l-154 -501h-242z" />
<glyph unicode="X" horiz-adv-x="903" d="M69 1259h157l225 -485l223 485h160l-304 -656l275 -603h-157l-197 429l-196 -429h-160l276 603z" />
<glyph unicode="Y" d="M69 1259h164l199 -487l188 487h164l-282 -660v-597h-140v593z" />
<glyph unicode="Z" horiz-adv-x="887" d="M92 2v145l537 966h-463v146h628v-144l-536 -968h461v-145h-627z" />
<glyph unicode="[" horiz-adv-x="435" d="M92 2v1257h251v-142h-107v-970h107v-145h-251z" />
<glyph unicode="\" horiz-adv-x="599" d="M69 1263h144l317 -1263h-140z" />
<glyph unicode="]" horiz-adv-x="435" d="M92 2v145h109v970h-109v142h251v-1257h-251z" />
<glyph unicode="^" horiz-adv-x="776" d="M92 802l295 437l297 -437h-162l-135 193l-134 -193h-161z" />
<glyph unicode="_" horiz-adv-x="675" d="M92 -70h490v-136h-490v136z" />
<glyph unicode="`" horiz-adv-x="439" d="M92 1193l116 64l139 -264l-83 -44z" />
<glyph unicode="a" horiz-adv-x="861" d="M92 0v1259h677v-1259h-144v507h-389v-507h-144zM236 643h387v483h-387v-483z" />
<glyph unicode="b" horiz-adv-x="837" d="M92 2v1257h507l146 -146v-501q-24 -13 -74 -41l74 -44v-376l-150 -149h-503zM234 147h313q50 55 54 58v267q-48 37 -54 37h-313v-362zM234 645h310q11 7 57 46v371q-52 51 -57 51h-310v-468z" />
<glyph unicode="c" horiz-adv-x="800" d="M92 0v1259h616v-129h-472v-999h472v-131h-616z" />
<glyph unicode="d" horiz-adv-x="837" d="M92 2v1257h507l146 -146v-967l-150 -144h-503zM234 147h313q50 55 54 58v857q-52 51 -57 51h-310v-966z" />
<glyph unicode="e" horiz-adv-x="800" d="M92 0v1259h616v-129h-472v-496h315v-134h-315v-369h472v-131h-616z" />
<glyph unicode="f" horiz-adv-x="800" d="M92 0v1259h616v-129h-472v-496h315v-134h-315v-500h-144z" />
<glyph unicode="g" horiz-adv-x="876" d="M92 0v1259h616v-129h-472v-997h326v350l-61 48l-103 -76v135q30 27 131 99l127 -83l127 56v-135l-73 -48v-479h-618z" />
<glyph unicode="h" horiz-adv-x="857" d="M92 2v1257h144v-619h383v619h146v-1257h-144v507h-385v-507h-144z" />
<glyph unicode="i" horiz-adv-x="328" d="M92 2v1257h144v-1257h-144z" />
<glyph unicode="j" horiz-adv-x="778" d="M92 2v472h144v-339h306v1124h144v-1257h-594z" />
<glyph unicode="k" horiz-adv-x="824" d="M69 2v1257h144v-492l365 492h177l-450 -616l442 -643h-173l-361 521v-521z" />
<glyph unicode="l" horiz-adv-x="758" d="M92 2v1257h146v-1123h427v-134h-573z" />
<glyph unicode="m" horiz-adv-x="1128" d="M92 2v1257h144l328 -474l326 474h146v-1257h-146v1001q-217 -306 -326 -480l-328 483v-1004h-144z" />
<glyph unicode="n" horiz-adv-x="946" d="M92 2v1261h144l474 -981v977h143v-1259h-142l-475 942v-940h-144z" />
<glyph unicode="o" d="M92 0v1259h669v-1259h-669zM236 144h381v969h-381v-969z" />
<glyph unicode="p" horiz-adv-x="859" d="M92 2v1257h675v-750h-531v-507h-144zM236 640h389v486h-389v-486z" />
<glyph unicode="q" horiz-adv-x="881" d="M92 0v1263h697v-1263l-144 -4q7 -24 26 -86h-151q-8 22 -32 90h-396zM240 146h201l-58 186h152l64 -186h42v971h-401v-971z" />
<glyph unicode="r" horiz-adv-x="859" d="M92 2v1257h675v-754h-358l347 -503h-175l-345 498v-498h-144zM236 640h389v486h-389v-486z" />
<glyph unicode="s" horiz-adv-x="866" d="M92 511v748h640v-146h-496v-459h538v-654h-638v144h493v367h-537z" />
<glyph unicode="t" horiz-adv-x="837" d="M69 1126v133h699v-131h-282v-1126h-146v1124h-271z" />
<glyph unicode="u" horiz-adv-x="899" d="M92 2v1257h144v-1112h428v1112h143v-1257h-715z" />
<glyph unicode="v" horiz-adv-x="957" d="M69 1259h146l263 -1112l262 1112h147l-294 -1257h-229z" />
<glyph unicode="w" horiz-adv-x="1047" d="M69 1259h142l53 -1110l183 596h151l184 -599l52 1113h144l-57 -1259h-242l-155 501l-154 -501h-242z" />
<glyph unicode="x" horiz-adv-x="903" d="M69 1259h157l225 -485l223 485h160l-304 -656l275 -603h-157l-197 429l-196 -429h-160l276 603z" />
<glyph unicode="y" d="M70 1259h164l199 -487l188 487h164l-282 -660v-597h-140v593z" />
<glyph unicode="z" horiz-adv-x="887" d="M92 2v145l537 966h-463v146h628v-144l-536 -968h461v-145h-627z" />
<glyph unicode="{" horiz-adv-x="549" d="M92 520v142h61l53 79v518h251v-142h-107v-487l-62 -48l62 -59v-376h107v-145h-251v462l-44 56h-70z" />
<glyph unicode="|" horiz-adv-x="328" d="M92 -182v1625h144v-1625h-144z" />
<glyph unicode="}" horiz-adv-x="549" d="M92 2v145h109v376l61 59l-61 48v487h-109v142h251v-524l55 -73h59v-142h-68l-46 -54v-464h-251z" />
<glyph unicode="~" horiz-adv-x="625" d="M92 588v135q61 31 170 99l116 -112l155 84v-134l-174 -98l-127 102z" />
<glyph unicode="&#xa1;" horiz-adv-x="330" d="M92 1084v175h146v-175h-146zM94 2v971h144v-971h-144z" />
<glyph unicode="&#xa2;" horiz-adv-x="800" d="M92 184v891h273v182h144v-182h199v-129h-199v-631h199v-131h-199v-184h-144v184h-273zM236 315h129v631h-129v-631z" />
<glyph unicode="&#xa3;" horiz-adv-x="758" d="M92 2v1257h454v-288h-137v152h-171v-417h160v-136h-160v-434h427v-134h-573z" />
<glyph unicode="&#xa4;" horiz-adv-x="1034" d="M92 359v135h240v146h-166v134h166v485h615v-129h-471v-356h259v-134h-259v-146h186v-135h-186v-228h471v-131h-615v359h-240z" />
<glyph unicode="&#xa5;" d="M69 1259h164l199 -487l188 487h164l-278 -651h211v-134h-215v-72h215v-135h-215v-265h-140v265h-215v135h215v72h-215v134h209z" />
<glyph unicode="&#xa6;" horiz-adv-x="328" d="M92 -182v704h144v-704h-144zM92 739v704h144v-704h-144z" />
<glyph unicode="&#xa7;" horiz-adv-x="866" d="M92 417v842h640v-146h-496v-239h538v-878h-638v144h493v277h-537zM236 564h393v162h-393v-162z" />
<glyph unicode="&#xa8;" horiz-adv-x="638" d="M92 1099v156h153v-156h-153zM391 1099v156h155v-156h-155z" />
<glyph unicode="&#xa9;" horiz-adv-x="772" d="M48 0v688h675v-688h-675zM149 101h474v485h-474v-485zM185 141v402h392v-90h-291v-221h291v-91h-392z" />
<glyph unicode="&#xaa;" horiz-adv-x="671" d="M92 369v890h492v-890h-143v322h-205v-322h-144zM236 828h203v298h-203v-298z" />
<glyph unicode="&#xab;" horiz-adv-x="981" d="M92 575l409 275v-144l-191 -131l184 -129v-144zM461 575l409 275v-144l-192 -131l185 -129v-144z" />
<glyph unicode="&#xac;" horiz-adv-x="783" d="M92 505v136h599v-359h-136v223h-463z" />
<glyph unicode="&#xad;" horiz-adv-x="691" d="M92 505v136h507v-136h-507z" />
<glyph unicode="&#x2212;" horiz-adv-x="691" d="M92 505v136h507v-136h-507z" />
<glyph unicode="&#xae;" horiz-adv-x="772" d="M48 0v688h675v-688h-675zM149 101h474v485h-474v-485zM188 141v402h395v-269h-173l139 -133h-135l-126 129v-129h-100zM288 368h195v82h-195v-82z" />
<glyph unicode="&#xaf;" horiz-adv-x="675" d="M92 1471v136h490v-136h-490z" />
<glyph unicode="&#x2c9;" horiz-adv-x="675" d="M92 1471v136h490v-136h-490z" />
<glyph unicode="&#xb0;" horiz-adv-x="614" d="M184 1183v445h430v-445h-430zM328 1327h142v155h-142v-155z" />
<glyph unicode="&#xb1;" horiz-adv-x="691" d="M92 70v136h490v-136h-490zM92 566v123h194v196h121v-196h192v-121h-192v-190h-121v188h-194z" />
<glyph unicode="&#xb2;" horiz-adv-x="569" d="M92 596v370h263v175h-242v122h364v-417h-264v-128h241v-122h-362z" />
<glyph unicode="&#xb3;" horiz-adv-x="537" d="M92 595v115h231v130h-154v116h154v192h-231v115h353v-668h-353z" />
<glyph unicode="&#xb4;" horiz-adv-x="433" d="M92 986l135 258l114 -63l-170 -237z" />
<glyph unicode="&#xb5;" horiz-adv-x="899" d="M92 -182v1441h144v-1112h428v1112h143v-1257h-571v-184h-144z" />
<glyph unicode="&#x3bc;" horiz-adv-x="899" d="M92 -182v1441h144v-1112h428v1112h143v-1257h-571v-184h-144z" />
<glyph unicode="&#xb6;" horiz-adv-x="859" d="M92 509v750h417v-1257h-144v507h-273zM234 640h131v486h-131v-486zM623 2v1257h144v-1257h-144z" />
<glyph unicode="&#xb7;" horiz-adv-x="324" d="M92 535v154h140v-154h-140z" />
<glyph unicode="&#x2219;" horiz-adv-x="324" d="M92 535v154h140v-154h-140z" />
<glyph unicode="&#xb8;" horiz-adv-x="472" d="M92 -147h144v300h144v-444h-288v144z" />
<glyph unicode="&#xb9;" horiz-adv-x="369" d="M92 1141v122h185v-667h-121v545h-64z" />
<glyph unicode="&#xba;" horiz-adv-x="671" d="M92 369v890h485v-890h-485zM236 512h197v601h-197v-601z" />
<glyph unicode="&#xbb;" horiz-adv-x="981" d="M92 706v144l409 -275l-401 -273v144l184 129zM461 706v144l409 -275l-402 -273v144l184 129z" />
<glyph unicode="&#xbc;" horiz-adv-x="1146" d="M184 0l686 1263h144l-690 -1263h-140zM258 1141v122h184v-667h-120v545h-64zM662 248v419h119v-304h152v304h121v-667h-121v248h-271z" />
<glyph unicode="&#xbd;" horiz-adv-x="1137" d="M184 0l686 1263h144l-690 -1263h-140zM258 1141v122h184v-667h-120v545h-64zM752 2v370h263v175h-242v122h364v-417h-264v-128h241v-122h-362z" />
<glyph unicode="&#xbe;" horiz-adv-x="1220" d="M184 595v115h232v130h-155v115h155v193h-232v115h353v-668h-353zM258 0l686 1263h143l-689 -1263h-140zM735 248v419h120v-304h151v304h122v-667h-122v248h-271z" />
<glyph unicode="&#xbf;" horiz-adv-x="864" d="M92 2v687h277v299h147v-435h-280v-417h393v174h143v-308h-680zM361 1123v140h144v-140h-144z" />
<glyph unicode="&#xc0;" horiz-adv-x="861" d="M92 0v1259h677v-1259h-144v507h-389v-507h-144zM221 1561l116 65l139 -264l-83 -44zM236 643h387v483h-387v-483z" />
<glyph unicode="&#xc1;" horiz-adv-x="861" d="M92 0v1259h677v-1259h-144v507h-389v-507h-144zM236 643h387v483h-387v-483zM387 1355l135 258l114 -63l-170 -238z" />
<glyph unicode="&#xc2;" horiz-adv-x="861" d="M92 0v1259h677v-1259h-144v507h-389v-507h-144zM184 1360l247 341l249 -341h-134l-115 151l-112 -151h-135zM236 643h387v483h-387v-483z" />
<glyph unicode="&#xc3;" horiz-adv-x="861" d="M92 0v1259h677v-1259h-144v507h-389v-507h-144zM236 643h387v483h-387v-483z" />
<glyph unicode="&#xc4;" horiz-adv-x="861" d="M92 0v1259h677v-1259h-144v507h-389v-507h-144zM203 1393v157h153v-157h-153zM236 643h387v483h-387v-483zM501 1393v157h155v-157h-155z" />
<glyph unicode="&#xc5;" horiz-adv-x="861" d="M92 0v1259h677v-1259h-144v507h-389v-507h-144zM236 643h387v483h-387v-483z" />
<glyph unicode="&#xc6;" horiz-adv-x="1333" d="M92 0v1259h1148v-129h-471v-496h315v-134h-315v-369h471v-131h-615v507h-389v-507h-144zM236 643h387v483h-387v-483z" />
<glyph unicode="&#xc7;" horiz-adv-x="800" d="M92 0v1259h616v-129h-472v-999h472v-131h-616z" />
<glyph unicode="&#xc8;" horiz-adv-x="800" d="M92 0v1259h616v-129h-472v-496h315v-135h-315v-368h472v-131h-616zM221 1561l116 65l139 -264l-83 -44z" />
<glyph unicode="&#xc9;" horiz-adv-x="800" d="M92 0v1259h616v-129h-472v-496h315v-135h-315v-368h472v-131h-616zM387 1355l135 258l114 -63l-170 -238z" />
<glyph unicode="&#xca;" horiz-adv-x="800" d="M92 0v1259h616v-129h-472v-496h315v-135h-315v-368h472v-131h-616zM166 1360l247 341l249 -341h-135l-114 151l-113 -151h-134z" />
<glyph unicode="&#xcb;" horiz-adv-x="800" d="M92 0v1259h616v-129h-472v-496h315v-135h-315v-368h472v-131h-616zM203 1393v157h153v-157h-153zM501 1393v157h155v-157h-155z" />
<glyph unicode="&#xcc;" horiz-adv-x="328" d="M-55 1561l116 65l138 -264l-83 -44zM92 2v1257h144v-1257h-144z" />
<glyph unicode="&#xcd;" horiz-adv-x="328" d="M92 2v1257h144v-1257h-144zM129 1355l135 258l114 -63l-170 -238z" />
<glyph unicode="&#xce;" horiz-adv-x="328" d="M-74 1360l247 341l249 -341h-134l-115 151l-112 -151h-135zM92 2v1257h144v-1257h-144z" />
<glyph unicode="&#xcf;" horiz-adv-x="328" d="M-55 1393v157h153v-157h-153zM92 2v1257h144v-1257h-144zM243 1393v157h155v-157h-155z" />
<glyph unicode="&#xd0;" horiz-adv-x="837" d="M92 2v1257h507l146 -146v-967l-150 -144h-503zM234 147h313q50 55 54 58v857q-52 51 -57 51h-310v-966z" />
<glyph unicode="&#xd1;" horiz-adv-x="946" d="M92 2v1261h144l474 -981v977h143v-1259h-142l-475 942v-940h-144z" />
<glyph unicode="&#xd2;" d="M92 0v1259h669v-1259h-669zM236 144h381v969h-381v-969zM258 1561l116 65l138 -264l-83 -44z" />
<glyph unicode="&#xd3;" d="M92 0v1259h669v-1259h-669zM236 144h381v969h-381v-969zM387 1355l135 258l114 -63l-170 -238z" />
<glyph unicode="&#xd4;" d="M92 0v1259h669v-1259h-669zM184 1360l247 341l249 -341h-134l-115 151l-112 -151h-135zM236 144h381v969h-381v-969z" />
<glyph unicode="&#xd5;" d="M92 0v1259h669v-1259h-669zM236 144h381v969h-381v-969z" />
<glyph unicode="&#xd6;" d="M92 0v1259h669v-1259h-669zM203 1393v157h153v-157h-153zM236 144h381v969h-381v-969zM501 1393v157h155v-157h-155z" />
<glyph unicode="&#xd7;" horiz-adv-x="645" d="M92 415l153 206l-149 208h175l53 -92l69 92h160l-149 -208l145 -206h-156l-69 88l-53 -88h-179z" />
<glyph unicode="&#xd8;" d="M92 0v1259h669v-1259h-669zM236 144h3l243 969h-246v-969zM379 144h238v937z" />
<glyph unicode="&#xd9;" horiz-adv-x="899" d="M92 2v1257h144v-1112h428v1112h143v-1257h-715zM258 1561l116 65l138 -264l-83 -44z" />
<glyph unicode="&#xda;" horiz-adv-x="899" d="M92 2v1257h144v-1112h428v1112h143v-1257h-715zM387 1355l135 258l114 -63l-170 -238z" />
<glyph unicode="&#xdb;" horiz-adv-x="899" d="M92 2v1257h144v-1112h428v1112h143v-1257h-715zM203 1360l247 341l249 -341h-135l-114 151l-113 -151h-134z" />
<glyph unicode="&#xdc;" horiz-adv-x="899" d="M92 2v1257h144v-1112h428v1112h143v-1257h-715zM221 1393v157h153v-157h-153zM520 1393v157h155v-157h-155z" />
<glyph unicode="&#xdd;" d="M69 1259h164l199 -487l188 487h164l-282 -660v-597h-140v593zM387 1355l135 258l114 -63l-170 -238z" />
<glyph unicode="&#xde;" horiz-adv-x="859" d="M90 1263h146v-244h531v-750h-531v-267h-144zM236 400h389v487h-389v-487z" />
<glyph unicode="&#xdf;" horiz-adv-x="1272" d="M92 547v712h455v-146h-311v-422h354v-691h-454v144h308v403h-352zM682 547v712h455v-146h-311v-422h354v-691h-454v144h308v403h-352z" />
<glyph unicode="&#xe0;" horiz-adv-x="861" d="M92 0v1259h677v-1259h-144v507h-389v-507h-144zM221 1561l116 65l139 -264l-83 -44zM236 643h387v483h-387v-483z" />
<glyph unicode="&#xe1;" horiz-adv-x="861" d="M92 0v1259h677v-1259h-144v507h-389v-507h-144zM236 643h387v483h-387v-483zM387 1355l135 258l114 -63l-170 -238z" />
<glyph unicode="&#xe2;" horiz-adv-x="861" d="M92 0v1259h677v-1259h-144v507h-389v-507h-144zM184 1360l247 341l249 -341h-134l-115 151l-112 -151h-135zM236 643h387v483h-387v-483z" />
<glyph unicode="&#xe3;" horiz-adv-x="861" d="M92 0v1259h677v-1259h-144v507h-389v-507h-144zM236 643h387v483h-387v-483z" />
<glyph unicode="&#xe4;" horiz-adv-x="861" d="M92 0v1259h677v-1259h-144v507h-389v-507h-144zM236 643h387v483h-387v-483z" />
<glyph unicode="&#xe5;" horiz-adv-x="861" d="M92 0v1259h677v-1259h-144v507h-389v-507h-144zM236 643h387v483h-387v-483z" />
<glyph unicode="&#xe6;" horiz-adv-x="1333" d="M92 0v1259h1148v-129h-471v-496h315v-134h-315v-369h471v-131h-615v507h-389v-507h-144zM236 643h387v483h-387v-483z" />
<glyph unicode="&#xe7;" horiz-adv-x="800" d="M92 0v1259h616v-129h-472v-999h472v-131h-616z" />
<glyph unicode="&#xe8;" horiz-adv-x="800" d="M92 0v1259h616v-129h-472v-496h315v-135h-315v-368h472v-131h-616zM203 1561l116 65l138 -264l-83 -44z" />
<glyph unicode="&#xe9;" horiz-adv-x="800" d="M92 0v1259h616v-129h-472v-496h315v-135h-315v-368h472v-131h-616zM387 1355l135 258l114 -63l-170 -238z" />
<glyph unicode="&#xea;" horiz-adv-x="800" d="M92 0v1259h616v-129h-472v-496h315v-135h-315v-368h472v-131h-616zM166 1360l247 341l249 -341h-135l-114 151l-113 -151h-134z" />
<glyph unicode="&#xeb;" horiz-adv-x="800" d="M92 0v1259h616v-129h-472v-496h315v-135h-315v-368h472v-131h-616zM203 1393v157h153v-157h-153zM501 1393v157h155v-157h-155z" />
<glyph unicode="&#xec;" horiz-adv-x="328" d="M-55 1561l116 65l138 -264l-83 -44zM92 2v1257h144v-1257h-144z" />
<glyph unicode="&#xed;" horiz-adv-x="328" d="M92 2v1257h144v-1257h-144zM129 1355l135 258l114 -63l-170 -238z" />
<glyph unicode="&#xee;" horiz-adv-x="328" d="M-92 1360l247 341l249 -341h-135l-114 151l-113 -151h-134zM92 2v1257h144v-1257h-144z" />
<glyph unicode="&#xef;" horiz-adv-x="328" d="M-55 1393v157h153v-157h-153zM92 2v1257h144v-1257h-144zM243 1393v157h155v-157h-155z" />
<glyph unicode="&#xf0;" horiz-adv-x="982" d="M92 0v664h474v228h-179v136h179v231h144v-231h184v-136h-184v-892h-618zM238 131h328v398h-328v-398z" />
<glyph unicode="&#xf1;" horiz-adv-x="946" d="M92 2v1261h144l474 -981v977h143v-1259h-142l-475 942v-940h-144z" />
<glyph unicode="&#xf2;" d="M92 0v1259h669v-1259h-669zM221 1561l116 65l139 -264l-83 -44zM236 144h381v969h-381v-969z" />
<glyph unicode="&#xf3;" d="M92 0v1259h669v-1259h-669zM236 144h381v969h-381v-969zM387 1355l135 258l114 -63l-170 -238z" />
<glyph unicode="&#xf4;" d="M92 0v1259h669v-1259h-669zM184 1360l247 341l249 -341h-134l-115 151l-112 -151h-135zM236 144h381v969h-381v-969z" />
<glyph unicode="&#xf5;" d="M92 0v1259h669v-1259h-669zM236 144h381v969h-381v-969z" />
<glyph unicode="&#xf6;" d="M92 0v1259h669v-1259h-669zM203 1393v157h153v-157h-153zM236 144h381v969h-381v-969zM501 1393v157h155v-157h-155z" />
<glyph unicode="&#xf7;" horiz-adv-x="691" d="M92 505v136h507v-136h-507zM280 275v154h140v-154h-140zM280 717v155h140v-155h-140z" />
<glyph unicode="&#xf8;" d="M92 0v1259h669v-1259h-669zM236 144h3l243 969h-246v-969zM379 144h238v937z" />
<glyph unicode="&#xf9;" horiz-adv-x="899" d="M92 2v1257h144v-1112h428v1112h143v-1257h-715zM258 1561l116 65l138 -264l-83 -44z" />
<glyph unicode="&#xfa;" horiz-adv-x="899" d="M92 2v1257h144v-1112h428v1112h143v-1257h-715zM387 1355l135 258l114 -63l-170 -238z" />
<glyph unicode="&#xfb;" horiz-adv-x="899" d="M92 2v1257h144v-1112h428v1112h143v-1257h-715zM203 1360l247 341l249 -341h-135l-114 151l-113 -151h-134z" />
<glyph unicode="&#xfc;" horiz-adv-x="899" d="M92 2v1257h144v-1112h428v1112h143v-1257h-715zM221 1393v157h153v-157h-153zM520 1393v157h155v-157h-155z" />
<glyph unicode="&#xfd;" d="M70 1259h164l199 -487l188 487h164l-282 -660v-597h-140v593zM387 1355l135 258l114 -63l-170 -238z" />
<glyph unicode="&#xfe;" horiz-adv-x="859" d="M90 1078h146v-243h531v-750h-531v-267h-144zM236 216h389v486h-389v-486z" />
<glyph unicode="&#xff;" d="M70 1259h164l199 -487l188 487h164l-282 -660v-597h-140v593zM203 1393v157h153v-157h-153zM501 1393v157h155v-157h-155z" />
<glyph unicode="&#x152;" horiz-adv-x="1327" d="M92 0v1259h1143v-129h-472v-496h315v-134h-315v-369h472v-131h-1143zM236 144h381v969h-381v-969z" />
<glyph unicode="&#x153;" horiz-adv-x="1327" d="M92 0v1259h1143v-129h-472v-496h315v-134h-315v-369h472v-131h-1143zM236 144h381v969h-381v-969z" />
<glyph unicode="&#x178;" d="M69 1259h164l199 -487l188 487h164l-282 -660v-597h-140v593zM203 1393v157h153v-157h-153zM501 1393v157h155v-157h-155z" />
<glyph unicode="&#x2c6;" horiz-adv-x="680" d="M92 1268l247 341l249 -341h-135l-114 151l-112 -151h-135z" />
<glyph unicode="&#x2dc;" horiz-adv-x="625" d="M92 1325v135l170 99l116 -112l155 85v-135l-174 -98l-127 102z" />
<glyph unicode="&#x2000;" horiz-adv-x="850" />
<glyph unicode="&#x2001;" horiz-adv-x="1701" />
<glyph unicode="&#x2002;" horiz-adv-x="850" />
<glyph unicode="&#x2003;" horiz-adv-x="1701" />
<glyph unicode="&#x2004;" horiz-adv-x="567" />
<glyph unicode="&#x2005;" horiz-adv-x="425" />
<glyph unicode="&#x2006;" horiz-adv-x="283" />
<glyph unicode="&#x2007;" horiz-adv-x="283" />
<glyph unicode="&#x2008;" horiz-adv-x="212" />
<glyph unicode="&#x2009;" horiz-adv-x="340" />
<glyph unicode="&#x200a;" horiz-adv-x="94" />
<glyph unicode="&#x2010;" horiz-adv-x="691" d="M92 505v136h507v-136h-507z" />
<glyph unicode="&#x2011;" horiz-adv-x="691" d="M92 505v136h507v-136h-507z" />
<glyph unicode="&#x2012;" horiz-adv-x="691" d="M92 505v136h507v-136h-507z" />
<glyph unicode="&#x2013;" horiz-adv-x="544" d="M92 505v136h360v-136h-360z" />
<glyph unicode="&#x2014;" horiz-adv-x="783" d="M92 505v136h599v-136h-599z" />
<glyph unicode="&#x2018;" horiz-adv-x="324" d="M92 1054v155l140 55v-210h-140z" />
<glyph unicode="&#x2019;" horiz-adv-x="324" d="M92 1054v210h140v-154z" />
<glyph unicode="&#x201a;" horiz-adv-x="324" d="M92 -70v210h140v-155z" />
<glyph unicode="&#x201c;" horiz-adv-x="555" d="M92 1054v155l140 55v-210h-140zM332 1054v155l140 55v-210h-140z" />
<glyph unicode="&#x201d;" horiz-adv-x="555" d="M92 1054v210h140v-154zM332 1054v210h140v-154z" />
<glyph unicode="&#x201e;" horiz-adv-x="555" d="M92 -70v210h140v-155zM332 -70v210h140v-155z" />
<glyph unicode="&#x2022;" horiz-adv-x="614" d="M92 391v444h430v-444h-430z" />
<glyph unicode="&#x2026;" horiz-adv-x="1052" d="M92 -2v155h140v-155h-140zM442 -2v155h140v-155h-140zM793 -2v155h140v-155h-140z" />
<glyph unicode="&#x202f;" horiz-adv-x="340" />
<glyph unicode="&#x2039;" horiz-adv-x="603" d="M92 575l409 275v-144l-191 -131l184 -129v-144z" />
<glyph unicode="&#x203a;" horiz-adv-x="603" d="M92 706v144l409 -275l-401 -273v144l184 129z" />
<glyph unicode="&#x205f;" horiz-adv-x="425" />
<glyph unicode="&#x2122;" horiz-adv-x="1646" d="M156 1126v133h514v-131h-184v-553h-146v551h-184zM829 573v686h144l183 -419l182 419h146v-686h-146v393l-182 -387l-183 391v-397h-144z" />
<glyph unicode="&#xe000;" horiz-adv-x="1260" d="M0 1260h1260v-1260h-1260v1260z" />
<glyph unicode="&#xfb01;" horiz-adv-x="1128" d="M892 2v1257h144v-1257h-144zM92 0v1259h616v-129h-472v-496h315v-134h-315v-500h-144z" />
<glyph unicode="&#xfb02;" horiz-adv-x="1558" d="M892 2v1257h146v-1123h427v-134h-573zM92 0v1259h616v-129h-472v-496h315v-134h-315v-500h-144z" />
<glyph unicode="&#xfb03;" horiz-adv-x="1928" d="M1692 2v1257h144v-1257h-144zM892 0v1259h616v-129h-472v-496h315v-134h-315v-500h-144zM92 0v1259h616v-129h-472v-496h315v-134h-315v-500h-144z" />
<glyph unicode="&#xfb04;" horiz-adv-x="2358" d="M1692 2v1257h146v-1123h427v-134h-573zM892 0v1259h616v-129h-472v-496h315v-134h-315v-500h-144zM92 0v1259h616v-129h-472v-496h315v-134h-315v-500h-144z" />
</font>
</defs>
</svg>
